<svg width="30" height="30" viewBox="0 0 30 30" fill="none" xmlns="http://www.w3.org/2000/svg">
<path opacity="0.5" d="M18.9998 5L17.9998 5C15.1714 5 13.7576 5.00023 12.8789 5.87891C12.0002 6.75759 12.0002 8.1718 12.0002 11.0002L12.0002 19.0002C12.0002 21.8287 12.0002 23.2429 12.8789 24.1215C13.7574 25 15.1706 25 17.9976 25L17.9998 25L18.9998 25C21.8282 25 23.2424 25 24.1211 24.1213C24.9998 23.2426 24.9998 21.8284 24.9998 19L24.9998 11L24.9998 11C24.9998 8.17157 24.9998 6.75736 24.1211 5.87868C23.2424 5 21.8282 5 18.9998 5Z" fill="#F54C4C"/>
<path fill-rule="evenodd" clip-rule="evenodd" d="M18.75 15C18.75 14.5858 18.4142 14.25 18 14.25L7.02744 14.25L8.98809 12.5694C9.30259 12.2999 9.33901 11.8264 9.06944 11.5119C8.79988 11.1974 8.3264 11.161 8.01191 11.4305L4.51191 14.4305C4.34567 14.573 4.25 14.781 4.25 15C4.25 15.2189 4.34567 15.4269 4.51191 15.5694L8.01191 18.5694C8.3264 18.839 8.79988 18.8026 9.06944 18.4881C9.33901 18.1736 9.30259 17.7001 8.98809 17.4305L7.02744 15.75L18 15.75C18.4142 15.75 18.75 15.4142 18.75 15Z" fill="#F54C4C"/>
</svg>
