<svg width="27" height="27" viewBox="0 0 27 27" fill="none" xmlns="http://www.w3.org/2000/svg">
<path d="M13.5027 2.43154C17.1104 2.43154 17.5376 2.44736 18.9565 2.51065C20.2751 2.56867 20.9872 2.7902 21.4619 2.97481C22.0895 3.21743 22.5431 3.5128 23.0126 3.98223C23.4873 4.45694 23.7774 4.90527 24.02 5.53293C24.2046 6.00763 24.4261 6.72496 24.4841 8.03831C24.5474 9.46242 24.5633 9.88965 24.5633 13.4921C24.5633 17.0999 24.5474 17.5271 24.4841 18.9459C24.4261 20.2646 24.2046 20.9766 24.02 21.4513C23.7774 22.079 23.482 22.5326 23.0126 23.002C22.5379 23.4767 22.0895 23.7668 21.4619 24.0094C20.9872 24.194 20.2698 24.4156 18.9565 24.4736C17.5324 24.5369 17.1051 24.5527 13.5027 24.5527C9.89492 24.5527 9.46769 24.5369 8.04886 24.4736C6.73024 24.4156 6.01818 24.194 5.54348 24.0094C4.91582 23.7668 4.46221 23.4714 3.99278 23.002C3.51808 22.5273 3.22798 22.079 2.98536 21.4513C2.80075 20.9766 2.57922 20.2593 2.5212 18.9459C2.45791 17.5218 2.44208 17.0946 2.44208 13.4921C2.44208 9.88438 2.45791 9.45714 2.5212 8.03831C2.57922 6.71969 2.80075 6.00763 2.98536 5.53293C3.22798 4.90527 3.52335 4.45166 3.99278 3.98223C4.46748 3.50753 4.91582 3.21743 5.54348 2.97481C6.01818 2.7902 6.73551 2.56867 8.04886 2.51065C9.46769 2.44736 9.89492 2.43154 13.5027 2.43154ZM13.5027 0C9.83691 0 9.37803 0.0158234 7.93809 0.0791172C6.50343 0.142411 5.51711 0.374488 4.66264 0.70678C3.77125 1.0549 3.017 1.51378 2.26803 2.26803C1.51378 3.017 1.0549 3.77125 0.70678 4.65737C0.374488 5.51711 0.142411 6.49816 0.0791172 7.93282C0.0158234 9.37803 0 9.83691 0 13.5027C0 17.1684 0.0158234 17.6273 0.0791172 19.0672C0.142411 20.5019 0.374488 21.4882 0.70678 22.3427C1.0549 23.2341 1.51378 23.9883 2.26803 24.7373C3.017 25.4863 3.77125 25.9504 4.65737 26.2933C5.51711 26.6256 6.49816 26.8577 7.93282 26.9209C9.37275 26.9842 9.83163 27.0001 13.4974 27.0001C17.1632 27.0001 17.622 26.9842 19.062 26.9209C20.4966 26.8577 21.483 26.6256 22.3374 26.2933C23.2235 25.9504 23.9778 25.4863 24.7268 24.7373C25.4757 23.9883 25.9399 23.2341 26.2827 22.348C26.615 21.4882 26.8471 20.5072 26.9104 19.0725C26.9737 17.6326 26.9895 17.1737 26.9895 13.5079C26.9895 9.84218 26.9737 9.3833 26.9104 7.94337C26.8471 6.50871 26.615 5.52238 26.2827 4.66791C25.9504 3.77125 25.4916 3.017 24.7373 2.26803C23.9883 1.51905 23.2341 1.0549 22.348 0.712055C21.4882 0.379763 20.5072 0.147685 19.0725 0.0843917C17.6273 0.0158234 17.1684 0 13.5027 0Z" fill="#363636"/>
<path d="M13.503 6.56653C9.6737 6.56653 6.56703 9.6732 6.56703 13.5025C6.56703 17.3317 9.6737 20.4384 13.503 20.4384C17.3322 20.4384 20.4389 17.3317 20.4389 13.5025C20.4389 9.6732 17.3322 6.56653 13.503 6.56653ZM13.503 18.0016C11.0187 18.0016 9.00384 15.9868 9.00384 13.5025C9.00384 11.0182 11.0187 9.00334 13.503 9.00334C15.9873 9.00334 18.0021 11.0182 18.0021 13.5025C18.0021 15.9868 15.9873 18.0016 13.503 18.0016Z" fill="#363636"/>
<path d="M22.3317 6.29216C22.3317 7.18882 21.6038 7.91143 20.7124 7.91143C19.8158 7.91143 19.0932 7.18355 19.0932 6.29216C19.0932 5.3955 19.821 4.67289 20.7124 4.67289C21.6038 4.67289 22.3317 5.40077 22.3317 6.29216Z" fill="#363636"/>
</svg>
