<svg width="36" height="36" viewBox="0 0 36 36" fill="none" xmlns="http://www.w3.org/2000/svg">
<path fill-rule="evenodd" clip-rule="evenodd" d="M18.0001 5.09998C18.4972 5.09998 18.9001 5.50292 18.9001 5.99998V7.53801C23.9811 7.96933 28.0307 12.0189 28.4621 17.1H30.0001C30.4972 17.1 30.9001 17.5029 30.9001 18C30.9001 18.497 30.4972 18.9 30.0001 18.9H28.4621C28.0307 23.981 23.9811 28.0306 18.9001 28.4619V30C18.9001 30.497 18.4972 30.9 18.0001 30.9C17.503 30.9 17.1001 30.497 17.1001 30V28.4619C12.0191 28.0306 7.96946 23.981 7.53813 18.9H6.0001C5.50304 18.9 5.1001 18.497 5.1001 18C5.1001 17.5029 5.50304 17.1 6.0001 17.1H7.53813C7.96946 12.0189 12.0191 7.96933 17.1001 7.53801V5.99998C17.1001 5.50292 17.503 5.09998 18.0001 5.09998ZM18.0001 9.29998C13.1952 9.29998 9.3001 13.1951 9.3001 18C9.3001 22.8049 13.1952 26.7 18.0001 26.7C22.805 26.7 26.7001 22.8049 26.7001 18C26.7001 13.1951 22.805 9.29998 18.0001 9.29998ZM18.0001 15.3C16.5089 15.3 15.3001 16.5088 15.3001 18C15.3001 19.4911 16.5089 20.7 18.0001 20.7C19.4913 20.7 20.7001 19.4911 20.7001 18C20.7001 16.5088 19.4913 15.3 18.0001 15.3ZM13.5001 18C13.5001 15.5147 15.5148 13.5 18.0001 13.5C20.4854 13.5 22.5001 15.5147 22.5001 18C22.5001 20.4853 20.4854 22.5 18.0001 22.5C15.5148 22.5 13.5001 20.4853 13.5001 18Z" fill="#1C274C"/>
</svg>
