<svg width="30" height="30" viewBox="0 0 30 30" fill="none" xmlns="http://www.w3.org/2000/svg">
<g opacity="0.5">
<path d="M10.2047 10.5623C10.5152 10.2882 10.5448 9.81427 10.2707 9.50371C9.99659 9.19316 9.52264 9.1636 9.21208 9.4377C7.39676 11.0399 6.25 13.3865 6.25 16C6.25 16.4142 6.58579 16.75 7 16.75C7.41421 16.75 7.75 16.4142 7.75 16C7.75 13.8347 8.69828 11.8919 10.2047 10.5623Z" fill="#1C274C"/>
<path d="M20.7879 9.4377C20.4774 9.1636 20.0034 9.19316 19.7293 9.50371C19.4552 9.81427 19.4848 10.2882 19.7953 10.5623C21.3017 11.8919 22.25 13.8347 22.25 16C22.25 16.4142 22.5858 16.75 23 16.75C23.4142 16.75 23.75 16.4142 23.75 16C23.75 13.3865 22.6032 11.0399 20.7879 9.4377Z" fill="#1C274C"/>
<path d="M13.1869 23.0217C12.7858 22.9184 12.3769 23.1599 12.2737 23.5611C12.1704 23.9622 12.4119 24.3711 12.8131 24.4743C13.5129 24.6544 14.2458 24.75 15 24.75C15.7542 24.75 16.4871 24.6544 17.1869 24.4743C17.5881 24.3711 17.8296 23.9622 17.7263 23.5611C17.6231 23.1599 17.2142 22.9184 16.8131 23.0217C16.2344 23.1706 15.627 23.25 15 23.25C14.373 23.25 13.7656 23.1706 13.1869 23.0217Z" fill="#1C274C"/>
</g>
<path d="M12 9C12 10.6569 13.3431 12 15 12C16.6569 12 18 10.6569 18 9C18 7.34315 16.6569 6 15 6C13.3431 6 12 7.34315 12 9Z" fill="#1C274C"/>
<path d="M5.5 21C5.5 22.6569 6.84315 24 8.5 24C10.1569 24 11.5 22.6569 11.5 21C11.5 19.3431 10.1569 18 8.5 18C6.84315 18 5.5 19.3431 5.5 21Z" fill="#1C274C"/>
<path d="M21.5 24C19.8431 24 18.5 22.6569 18.5 21C18.5 19.3431 19.8431 18 21.5 18C23.1569 18 24.5 19.3431 24.5 21C24.5 22.6569 23.1569 24 21.5 24Z" fill="#1C274C"/>
</svg>
