<svg width="30" height="30" viewBox="0 0 30 30" fill="none" xmlns="http://www.w3.org/2000/svg">
<path opacity="0.5" d="M17.005 7H12.995C9.21439 7 7.32407 7 6.14958 8.17157C5.34091 8.97823 5.08903 10.1234 5.01058 11.9895C4.99502 12.3595 4.98724 12.5446 5.05634 12.668C5.12545 12.7915 5.40133 12.9455 5.95308 13.2537C6.56586 13.5959 6.98007 14.2497 6.98007 15C6.98007 15.7503 6.56586 16.4041 5.95308 16.7463C5.40133 17.0545 5.12545 17.2085 5.05634 17.332C4.98724 17.4554 4.99502 17.6405 5.01058 18.0105C5.08903 19.8766 5.34091 21.0218 6.14958 21.8284C7.32407 23 9.21438 23 12.995 23H17.005C20.7856 23 22.6759 23 23.8504 21.8284C24.6591 21.0218 24.911 19.8766 24.9894 18.0105C25.005 17.6405 25.0128 17.4554 24.9437 17.332C24.8745 17.2085 24.5987 17.0545 24.0469 16.7463C23.4341 16.4041 23.0199 15.7503 23.0199 15C23.0199 14.2497 23.4341 13.5959 24.0469 13.2537C24.5987 12.9455 24.8745 12.7915 24.9437 12.668C25.0128 12.5446 25.005 12.3595 24.9894 11.9895C24.911 10.1234 24.6591 8.97823 23.8504 8.17157C22.6759 7 20.7856 7 17.005 7Z" fill="#565656"/>
<path d="M18.5475 11.4697C18.8411 11.7626 18.8411 12.2374 18.5475 12.5303L12.5325 18.5303C12.2389 18.8232 11.7629 18.8232 11.4692 18.5303C11.1756 18.2374 11.1756 17.7626 11.4692 17.4697L17.4842 11.4697C17.7778 11.1768 18.2539 11.1768 18.5475 11.4697Z" fill="#565656"/>
<path d="M17.5146 18.5C18.0683 18.5 18.5171 18.0523 18.5171 17.5C18.5171 16.9477 18.0683 16.5 17.5146 16.5C16.9609 16.5 16.5121 16.9477 16.5121 17.5C16.5121 18.0523 16.9609 18.5 17.5146 18.5Z" fill="#565656"/>
<path d="M12.5021 13.5C13.0558 13.5 13.5046 13.0523 13.5046 12.5C13.5046 11.9477 13.0558 11.5 12.5021 11.5C11.9485 11.5 11.4996 11.9477 11.4996 12.5C11.4996 13.0523 11.9485 13.5 12.5021 13.5Z" fill="#565656"/>
</svg>
