<svg width="46" height="46" viewBox="0 0 46 46" fill="none" xmlns="http://www.w3.org/2000/svg">
<path d="M35.8033 35.8033C38 33.6066 38 30.0711 38 23C38 15.9289 38 12.3934 35.8033 10.1967C33.6066 8 30.0711 8 23 8C15.9289 8 12.3934 8 10.1967 10.1967C8 12.3934 8 15.9289 8 23C8 30.0711 8 33.6066 10.1967 35.8033C12.3934 38 15.9289 38 23 38C30.0711 38 33.6066 38 35.8033 35.8033Z" fill="#E4E4E4"/>
<path d="M31.3634 15.1853C31.8686 15.5702 31.9661 16.2918 31.5812 16.797L21.0669 30.597C20.8576 30.8718 20.5357 31.0379 20.1905 31.0494C19.8452 31.0609 19.5131 30.9166 19.2859 30.6563L14.4668 25.1363C14.0491 24.6579 14.0984 23.9314 14.5768 23.5137C15.0553 23.096 15.7817 23.1453 16.1994 23.6237L20.0916 28.082L29.7517 15.4031C30.1366 14.8979 30.8582 14.8004 31.3634 15.1853Z" fill="#D2D2D2"/>
</svg>
