<svg width="49" height="49" viewBox="0 0 49 49" fill="none" xmlns="http://www.w3.org/2000/svg">
<path fill-rule="evenodd" clip-rule="evenodd" d="M24.4998 8.16669C17.2833 8.16669 11.4331 14.7042 11.4331 22.05C11.4331 29.3382 15.6035 37.2603 22.1103 40.3016C23.6272 41.0106 25.3724 41.0106 26.8892 40.3016C33.396 37.2603 37.5664 29.3382 37.5664 22.05C37.5664 14.7042 31.7163 8.16669 24.4998 8.16669ZM24.4998 24.5C26.3039 24.5 27.7664 23.0375 27.7664 21.2334C27.7664 19.4292 26.3039 17.9667 24.4998 17.9667C22.6956 17.9667 21.2331 19.4292 21.2331 21.2334C21.2331 23.0375 22.6956 24.5 24.4998 24.5Z" fill="#F54C4C"/>
</svg>
