<svg width="24" height="24" viewBox="0 0 24 24" fill="none" xmlns="http://www.w3.org/2000/svg">
<path d="M20.03 6.81994L14.28 2.78994C12.71 1.68994 10.31 1.74994 8.8 2.91994L3.79 6.82994C2.78 7.60994 2 9.20994 2 10.4699V17.3699C2 19.9199 4.07 21.9999 6.61 21.9999H17.38C19.92 21.9999 21.99 19.9299 21.99 17.3799V10.5999C22 9.24994 21.13 7.58994 20.03 6.81994Z" fill="#0EBE7E"/>
<path d="M13.4004 8.51001H10.6004C8.68035 8.51001 7.11035 10.07 7.11035 12V14.79C7.11035 16.71 8.68035 18.28 10.6004 18.28H13.3904C15.3104 18.28 16.8804 16.72 16.8804 14.79V12C16.8804 10.08 15.3204 8.51001 13.4004 8.51001ZM15.4904 12V12.7H12.7004V9.91001H13.4004C14.5504 9.91001 15.4904 10.85 15.4904 12ZM10.6004 9.91001H11.3004V12.7H8.51035V12C8.51035 10.85 9.45035 9.91001 10.6004 9.91001ZM8.51035 14.79V14.09H11.3004V16.88H10.6004C9.45035 16.88 8.51035 15.94 8.51035 14.79ZM13.4004 16.88H12.7004V14.09H15.4904V14.79C15.4904 15.94 14.5504 16.88 13.4004 16.88Z" fill="white"/>
</svg>
