<svg width="53" height="53" viewBox="0 0 53 53" fill="none" xmlns="http://www.w3.org/2000/svg">
<path opacity="0.4" d="M41.5796 41.5794C44.1668 38.9921 44.1668 34.8281 44.1668 26.4999C44.1668 18.1718 44.1668 14.0077 41.5796 11.4205C38.9924 8.83325 34.8283 8.83325 26.5002 8.83325C18.172 8.83325 14.0079 8.83325 11.4207 11.4205C8.8335 14.0077 8.8335 18.1718 8.8335 26.4999C8.8335 34.8281 8.8335 38.9921 11.4207 41.5794C14.0079 44.1666 18.172 44.1666 26.5002 44.1666C34.8283 44.1666 38.9924 44.1666 41.5796 41.5794Z" fill="white"/>
<path d="M22.913 30.8631C22.3955 31.3805 22.3955 32.2195 22.913 32.7369C23.4304 33.2544 24.2694 33.2544 24.7868 32.7369L30.0868 27.4369C30.3353 27.1884 30.4749 26.8514 30.4749 26.5C30.4749 26.1486 30.3353 25.8116 30.0868 25.5631L24.7868 20.2631C24.2694 19.7456 23.4304 19.7456 22.913 20.2631C22.3955 20.7805 22.3955 21.6195 22.913 22.1369L27.2761 26.5L22.913 30.8631Z" fill="#363636"/>
</svg>
