<svg width="53" height="53" viewBox="0 0 53 53" fill="none" xmlns="http://www.w3.org/2000/svg">
<path opacity="0.4" d="M41.5796 41.5795C44.1668 38.9923 44.1668 34.8282 44.1668 26.5C44.1668 18.1719 44.1668 14.0078 41.5796 11.4206C38.9924 8.83337 34.8283 8.83337 26.5002 8.83337C18.172 8.83337 14.0079 8.83337 11.4207 11.4206C8.8335 14.0078 8.8335 18.1719 8.8335 26.5C8.8335 34.8282 8.8335 38.9923 11.4207 41.5795C14.0079 44.1667 18.172 44.1667 26.5002 44.1667C34.8283 44.1667 38.9924 44.1667 41.5796 41.5795Z" fill="#D2D2D2"/>
<path d="M22.913 30.8631C22.3955 31.3805 22.3955 32.2195 22.913 32.7369C23.4304 33.2544 24.2694 33.2544 24.7868 32.7369L30.0868 27.4369C30.3353 27.1884 30.4749 26.8514 30.4749 26.5C30.4749 26.1486 30.3353 25.8116 30.0868 25.5631L24.7868 20.2631C24.2694 19.7456 23.4304 19.7456 22.913 20.2631C22.3955 20.7805 22.3955 21.6195 22.913 22.1369L27.2761 26.5L22.913 30.8631Z" fill="#363636"/>
</svg>
