<svg width="30" height="30" viewBox="0 0 30 30" fill="none" xmlns="http://www.w3.org/2000/svg">
<path opacity="0.5" d="M12.9998 23H16.9998C20.771 23 22.6566 23 23.8282 21.8284C24.9998 20.6569 24.9998 18.7712 24.9998 15C24.9998 14.5581 24.9981 13.392 24.9962 13H5C4.99811 13.392 4.99976 14.5581 4.99976 15C4.99976 18.7712 4.99976 20.6569 6.17133 21.8284C7.34291 23 9.22852 23 12.9998 23Z" fill="#818181"/>
<path d="M12.9948 7H17.0052C20.7861 7 22.6766 7 23.8512 8.11578C24.6969 8.91916 24.9337 10.0751 25 12V13H5V12C5.0663 10.0751 5.3031 8.91916 6.14881 8.11578C7.3234 7 9.21388 7 12.9948 7Z" fill="#818181"/>
<path d="M15.5 18.25C15.0858 18.25 14.75 18.5858 14.75 19C14.75 19.4142 15.0858 19.75 15.5 19.75H17C17.4142 19.75 17.75 19.4142 17.75 19C17.75 18.5858 17.4142 18.25 17 18.25H15.5Z" fill="#818181"/>
<path d="M9 18.25C8.58579 18.25 8.25 18.5858 8.25 19C8.25 19.4142 8.58579 19.75 9 19.75H13C13.4142 19.75 13.75 19.4142 13.75 19C13.75 18.5858 13.4142 18.25 13 18.25H9Z" fill="#818181"/>
</svg>
