<svg width="30" height="30" viewBox="0 0 30 30" fill="none" xmlns="http://www.w3.org/2000/svg">
<path d="M9.94028 5C10.3561 5 10.6933 5.32421 10.6933 5.72414V7.18487C11.3612 7.17241 12.1098 7.17241 12.9522 7.17241H16.9681C17.8104 7.17241 18.5591 7.17241 19.227 7.18487V5.72414C19.227 5.32421 19.5641 5 19.98 5C20.3958 5 20.733 5.32421 20.733 5.72414V7.24894C22.178 7.36022 23.1267 7.63333 23.8236 8.30359C24.5206 8.97385 24.8046 9.88616 24.9203 11.2759L25 12H5.92456H5V11.2759C5.11571 9.88616 5.3997 8.97385 6.09665 8.30359C6.79361 7.63333 7.74226 7.36022 9.1873 7.24894V5.72414C9.1873 5.32421 9.52442 5 9.94028 5Z" fill="white"/>
<path opacity="0.5" d="M25 17V15C25 14.1609 24.9968 12.6651 24.9839 11.9999H5.00966C4.99675 12.6651 5.00001 14.1609 5.00001 15V17C5.00001 20.7712 5.00001 22.6568 6.17159 23.8284C7.34316 25 9.22878 25 13 25H17C20.7713 25 22.6569 25 23.8284 23.8284C25 22.6568 25 20.7712 25 17Z" fill="white"/>
<path d="M21 20C21 20.5523 20.5523 21 20 21C19.4477 21 19 20.5523 19 20C19 19.4477 19.4477 19 20 19C20.5523 19 21 19.4477 21 20Z" fill="white"/>
<path d="M21 16C21 16.5523 20.5523 17 20 17C19.4477 17 19 16.5523 19 16C19 15.4477 19.4477 15 20 15C20.5523 15 21 15.4477 21 16Z" fill="white"/>
<path d="M16 20C16 20.5523 15.5523 21 15 21C14.4477 21 14 20.5523 14 20C14 19.4477 14.4477 19 15 19C15.5523 19 16 19.4477 16 20Z" fill="white"/>
<path d="M16 16C16 16.5523 15.5523 17 15 17C14.4477 17 14 16.5523 14 16C14 15.4477 14.4477 15 15 15C15.5523 15 16 15.4477 16 16Z" fill="white"/>
<path d="M11 20C11 20.5523 10.5523 21 10 21C9.44772 21 9 20.5523 9 20C9 19.4477 9.44772 19 10 19C10.5523 19 11 19.4477 11 20Z" fill="white"/>
<path d="M11 16C11 16.5523 10.5523 17 10 17C9.44772 17 9 16.5523 9 16C9 15.4477 9.44772 15 10 15C10.5523 15 11 15.4477 11 16Z" fill="white"/>
</svg>
