<svg width="30" height="30" viewBox="0 0 30 30" fill="none" xmlns="http://www.w3.org/2000/svg">
<path d="M8.75 10C8.33579 10 8 10.3358 8 10.75C8 11.1642 8.33579 11.5 8.75 11.5H12.75C13.1642 11.5 13.5 11.1642 13.5 10.75C13.5 10.3358 13.1642 10 12.75 10H8.75Z" fill="white"/>
<path fill-rule="evenodd" clip-rule="evenodd" d="M24.1884 11.0038C24.1262 11 24.0584 11 23.9881 11L23.9706 11H21.2149C18.9435 11 17 12.7361 17 15C17 17.2639 18.9435 19 21.2149 19H23.9706L23.9881 19C24.0584 19 24.1262 19 24.1884 18.9962C25.111 18.9397 25.927 18.2386 25.9956 17.2594C26.0001 17.1952 26 17.126 26 17.0619L26 17.0444V12.9556L26 12.9381C26 12.874 26.0001 12.8048 25.9956 12.7406C25.927 11.7614 25.111 11.0603 24.1884 11.0038ZM20.9706 16.0667C21.5554 16.0667 22.0294 15.5891 22.0294 15C22.0294 14.4109 21.5554 13.9333 20.9706 13.9333C20.3858 13.9333 19.9118 14.4109 19.9118 15C19.9118 15.5891 20.3858 16.0667 20.9706 16.0667Z" fill="white"/>
<path opacity="0.5" d="M24.1394 11.0015C24.1394 9.82091 24.0965 8.55447 23.3418 7.64658C23.2689 7.55894 23.1914 7.47384 23.1088 7.39124C22.3604 6.64288 21.4114 6.31076 20.239 6.15314C19.0998 5.99997 17.6442 5.99999 15.8064 6H13.6936C11.8558 5.99999 10.4002 5.99997 9.26098 6.15314C8.08856 6.31076 7.13961 6.64288 6.39124 7.39124C5.64288 8.13961 5.31076 9.08856 5.15314 10.261C4.99997 11.4002 4.99999 12.8558 5 14.6936V14.8064C4.99999 16.6442 4.99997 18.0998 5.15314 19.239C5.31076 20.4114 5.64288 21.3604 6.39124 22.1088C7.13961 22.8571 8.08856 23.1892 9.26098 23.3469C10.4002 23.5 11.8558 23.5 13.6935 23.5H15.8064C17.6442 23.5 19.0998 23.5 20.239 23.3469C21.4114 23.1892 22.3604 22.8571 23.1088 22.1088C23.3133 21.9042 23.487 21.6844 23.6346 21.4486C24.0851 20.7291 24.1394 19.8473 24.1394 18.9985C24.0912 19 24.0404 19 23.9882 19L21.2149 19C18.9435 19 17 17.2639 17 15C17 12.7361 18.9435 11 21.2149 11L23.9881 11C24.0403 11 24.0912 11 24.1394 11.0015Z" fill="white"/>
</svg>
