<svg width="116" height="116" viewBox="0 0 116 116" fill="none" xmlns="http://www.w3.org/2000/svg">
<path fill-rule="evenodd" clip-rule="evenodd" d="M51.8275 98.5254L52.891 96.7285C54.5956 93.8487 55.4478 92.4088 56.8055 91.6057C58.1631 90.8026 59.934 90.746 63.4758 90.6327C66.7969 90.5265 69.0289 90.2367 70.9374 89.4462C74.9554 87.7819 78.1478 84.5895 79.8121 80.5714C81.0604 77.5579 81.0604 73.7375 81.0604 66.0968V62.8171C81.0604 52.0812 81.0604 46.7133 78.6439 42.77C77.2918 40.5635 75.4366 38.7083 73.2301 37.3562C69.2868 34.9397 63.9189 34.9397 53.1831 34.9397H43.3441C32.6083 34.9397 27.2404 34.9397 23.2971 37.3562C21.0906 38.7083 19.2354 40.5635 17.8833 42.77C15.4668 46.7133 15.4668 52.0812 15.4668 62.8171V66.0968C15.4668 73.7375 15.4668 77.5579 16.7151 80.5714C18.3794 84.5895 21.5717 87.7819 25.5898 89.4462C27.4983 90.2367 29.7303 90.5265 33.0512 90.6327C36.593 90.746 38.3639 90.8027 39.7216 91.6057C41.0792 92.4088 41.9315 93.8487 43.636 96.7285L44.6996 98.5254C46.2842 101.203 50.2428 101.203 51.8275 98.5254ZM62.6122 67.7365C64.8763 67.7365 66.7118 65.901 66.7118 63.6369C66.7118 61.3727 64.8763 59.5373 62.6122 59.5373C60.348 59.5373 58.5126 61.3727 58.5126 63.6369C58.5126 65.901 60.348 67.7365 62.6122 67.7365ZM52.3632 63.6369C52.3632 65.901 50.5277 67.7365 48.2636 67.7365C45.9994 67.7365 44.164 65.901 44.164 63.6369C44.164 61.3727 45.9994 59.5373 48.2636 59.5373C50.5277 59.5373 52.3632 61.3727 52.3632 63.6369ZM33.915 67.7365C36.1791 67.7365 38.0146 65.901 38.0146 63.6369C38.0146 61.3727 36.1791 59.5373 33.915 59.5373C31.6508 59.5373 29.8154 61.3727 29.8154 63.6369C29.8154 65.901 31.6508 67.7365 33.915 67.7365Z" fill="#0EBE7E"/>
<path opacity="0.5" d="M71.479 15.4667C76.3776 15.4666 80.273 15.4666 83.3972 15.7637C86.6005 16.0682 89.309 16.7067 91.7217 18.1852C94.204 19.7064 96.291 21.7934 97.8122 24.2758C99.2907 26.6885 99.9292 29.3969 100.234 32.6003C100.531 35.7244 100.531 39.6201 100.531 44.5186V47.8643C100.531 51.3505 100.531 54.1236 100.377 56.3722C100.22 58.6727 99.8926 60.6481 99.1264 62.4977C97.2541 67.0181 93.6627 70.6095 89.1424 72.4819C89.0293 72.5287 88.9157 72.5739 88.8015 72.6176C88.256 72.8261 87.7883 73.0049 87.378 73.1381H80.9974C81.06 71.2084 81.06 68.9105 81.06 66.093V62.8133C81.06 52.0775 81.06 46.7096 78.6436 42.7662C77.2914 40.5597 75.4363 38.7046 73.2298 37.3524C69.2865 34.9359 63.9186 34.9359 53.1827 34.9359H43.3437C39.5335 34.9359 36.3994 34.9359 33.7651 35.044V28.6624C33.8916 28.2241 34.0649 27.7217 34.2683 27.132C34.6142 26.129 35.0515 25.1805 35.6059 24.2758C37.127 21.7934 39.2141 19.7064 41.6964 18.1852C44.1091 16.7067 46.8176 16.0682 50.0209 15.7637C53.1451 15.4666 57.0406 15.4666 61.9392 15.4667H71.479Z" fill="#0EBE7E"/>
</svg>
