<svg width="30" height="30" viewBox="0 0 30 30" fill="none" xmlns="http://www.w3.org/2000/svg">
<path fill-rule="evenodd" clip-rule="evenodd" d="M21.1213 5.87868C22 6.75736 22 8.17157 22 11V19C22 21.8284 22 23.2426 21.1213 24.1213C20.2426 25 18.8284 25 16 25H14C11.1716 25 9.75736 25 8.87868 24.1213C8 23.2426 8 21.8284 8 19V11C8 8.17157 8 6.75736 8.87868 5.87868C9.75736 5 11.1716 5 14 5H16C18.8284 5 20.2426 5 21.1213 5.87868ZM18.75 20C18.75 19.5858 18.4142 19.25 18 19.25H15C14.5858 19.25 14.25 19.5858 14.25 20C14.25 20.4142 14.5858 20.75 15 20.75H18C18.4142 20.75 18.75 20.4142 18.75 20ZM18 15.25C18.4142 15.25 18.75 15.5858 18.75 16C18.75 16.4142 18.4142 16.75 18 16.75H12C11.5858 16.75 11.25 16.4142 11.25 16C11.25 15.5858 11.5858 15.25 12 15.25H18ZM18.75 12C18.75 11.5858 18.4142 11.25 18 11.25H12C11.5858 11.25 11.25 11.5858 11.25 12C11.25 12.4142 11.5858 12.75 12 12.75H18C18.4142 12.75 18.75 12.4142 18.75 12Z" fill="#0EBE7E"/>
<path d="M21.7648 7.05835C22 7.94164 22 9.17713 22 11.0001V19.0001C22 20.8231 22 22.0586 21.7647 22.9419L22 22.924C22.9751 22.8281 23.6314 22.6114 24.1213 22.1215C25 21.2428 25 19.8286 25 17.0001V13.0001C25 10.1717 25 8.75751 24.1213 7.87883C23.6314 7.38894 22.9751 7.17218 22 7.07627L21.7648 7.05835Z" fill="#D2D2D2"/>
<path d="M8.23535 22.9419C8.00008 22.0586 8.00008 20.8231 8.00008 19.0001V11.0001C8.00008 9.17713 8.00008 7.94164 8.23533 7.05835L8.00008 7.07627C7.02499 7.17218 6.36865 7.38894 5.87876 7.87883C5.00008 8.75751 5.00008 10.1717 5.00008 13.0001V17.0001C5.00008 19.8286 5.00008 21.2428 5.87876 22.1215C6.36865 22.6114 7.02499 22.8281 8.00008 22.924L8.23535 22.9419Z" fill="#D2D2D2"/>
</svg>
