<svg width="19" height="19" viewBox="0 0 19 19" fill="none" xmlns="http://www.w3.org/2000/svg">
<path opacity="0.5" d="M15.8332 9.49996C15.8332 6.00216 12.9976 3.16663 9.49984 3.16663C6.00203 3.16663 3.1665 6.00216 3.1665 9.49996C3.1665 12.9978 6.00203 15.8333 9.49984 15.8333C12.9976 15.8333 15.8332 12.9978 15.8332 9.49996Z" fill="#0EBE7E" fill-opacity="0.35"/>
<path d="M9.50003 5.85828C9.76237 5.85828 9.97503 6.07094 9.97503 6.33328V10.1333C9.97503 10.3956 9.76237 10.6083 9.50003 10.6083C9.2377 10.6083 9.02503 10.3956 9.02503 10.1333V6.33328C9.02503 6.07094 9.2377 5.85828 9.50003 5.85828Z" fill="#0EBE7E" fill-opacity="0.35"/>
<path d="M9.50003 12.6666C9.84981 12.6666 10.1334 12.3831 10.1334 12.0333C10.1334 11.6835 9.84981 11.3999 9.50003 11.3999C9.15025 11.3999 8.8667 11.6835 8.8667 12.0333C8.8667 12.3831 9.15025 12.6666 9.50003 12.6666Z" fill="#0EBE7E" fill-opacity="0.35"/>
</svg>
