<svg width="30" height="30" viewBox="0 0 30 30" fill="none" xmlns="http://www.w3.org/2000/svg">
<path d="M8.75 10C8.33579 10 8 10.3358 8 10.75C8 11.1642 8.33579 11.5 8.75 11.5H12.75C13.1642 11.5 13.5 11.1642 13.5 10.75C13.5 10.3358 13.1642 10 12.75 10H8.75Z" fill="white"/>
<path fill-rule="evenodd" clip-rule="evenodd" d="M24.1884 11.0038C24.1262 11 24.0584 11 23.9881 11L23.9706 11H21.2149C18.9435 11 17 12.7361 17 15C17 17.2639 18.9435 19 21.2149 19H23.9706L23.9881 19C24.0584 19 24.1262 19 24.1884 18.9962C25.111 18.9397 25.927 18.2386 25.9956 17.2594C26.0001 17.1952 26 17.126 26 17.0619L26 17.0444V12.9556L26 12.9381C26 12.874 26.0001 12.8048 25.9956 12.7406C25.927 11.7614 25.111 11.0603 24.1884 11.0038ZM20.9706 16.0667C21.5554 16.0667 22.0294 15.5891 22.0294 15C22.0294 14.4109 21.5554 13.9333 20.9706 13.9333C20.3858 13.9333 19.9118 14.4109 19.9118 15C19.9118 15.5891 20.3858 16.0667 20.9706 16.0667Z" fill="white"/>
</svg>
