<svg width="30" height="30" viewBox="0 0 30 30" fill="none" xmlns="http://www.w3.org/2000/svg">
<path opacity="0.5" fill-rule="evenodd" clip-rule="evenodd" d="M6.25 25C6.25 24.5858 6.58579 24.25 7 24.25H23C23.4142 24.25 23.75 24.5858 23.75 25C23.75 25.4142 23.4142 25.75 23 25.75H7C6.58579 25.75 6.25 25.4142 6.25 25Z" fill="#0EBE7E"/>
<path opacity="0.5" d="M22.0807 10.3716C23.3095 9.14279 23.3095 7.15046 22.0807 5.92162C20.8519 4.69279 18.8595 4.69279 17.6307 5.92162L16.9209 6.63141C16.9306 6.66076 16.9407 6.69052 16.9512 6.72066C17.2113 7.47054 17.7022 8.45356 18.6256 9.37698C19.549 10.3004 20.532 10.7913 21.2819 11.0514C21.3119 11.0618 21.3415 11.0719 21.3708 11.0815L22.0807 10.3716Z" fill="#0EBE7E"/>
<path d="M16.9511 6.59961L16.9205 6.63017C16.9303 6.65952 16.9403 6.68928 16.9508 6.71942C17.211 7.4693 17.7018 8.45232 18.6252 9.37574C19.5487 10.2992 20.5317 10.79 21.2816 11.0502C21.3113 11.0605 21.3407 11.0705 21.3696 11.0801L14.5198 17.9299C14.058 18.3917 13.827 18.6227 13.5724 18.8213C13.2721 19.0555 12.9471 19.2564 12.6033 19.4202C12.3118 19.5591 12.002 19.6624 11.3824 19.869L8.11497 20.9581C7.81005 21.0597 7.47388 20.9804 7.24661 20.7531C7.01934 20.5258 6.93998 20.1897 7.04162 19.8847L8.13074 16.6173C8.33728 15.9977 8.44055 15.6879 8.57947 15.3964C8.74334 15.0526 8.94418 14.7276 9.17844 14.4273C9.37702 14.1727 9.60794 13.9418 10.0697 13.48L16.9511 6.59961Z" fill="#0EBE7E"/>
</svg>
