<svg width="30" height="30" viewBox="0 0 30 30" fill="none" xmlns="http://www.w3.org/2000/svg">
<path opacity="0.5" d="M22.7165 23.3624C24.143 22.5846 25 21.5873 25 20.5C25 19.3475 24.0372 18.2961 22.4537 17.5C20.6226 16.5794 17.9617 16 15 16C12.0383 16 9.37738 16.5794 7.54631 17.5C5.96285 18.2961 5 19.3475 5 20.5C5 21.6525 5.96285 22.7039 7.54631 23.5C9.37738 24.4206 12.0383 25 15 25C18.1066 25 20.8823 24.3625 22.7165 23.3624Z" fill="#1C274C"/>
<path fill-rule="evenodd" clip-rule="evenodd" d="M8 11.5146C8 7.9167 11.134 5 15 5C18.866 5 22 7.9167 22 11.5146C22 15.0844 19.7658 19.2499 16.2801 20.7396C15.4675 21.0868 14.5325 21.0868 13.7199 20.7396C10.2342 19.2499 8 15.0844 8 11.5146ZM15 14C16.1046 14 17 13.1046 17 12C17 10.8954 16.1046 10 15 10C13.8954 10 13 10.8954 13 12C13 13.1046 13.8954 14 15 14Z" fill="#1C274C"/>
</svg>
