<svg width="30" height="30" viewBox="0 0 30 30" fill="none" xmlns="http://www.w3.org/2000/svg">
<path opacity="0.5" d="M6.46447 23.5355C7.92893 25 10.286 25 15 25C19.714 25 22.0711 25 23.5355 23.5355C25 22.0711 25 19.714 25 15C25 10.286 25 7.92893 23.5355 6.46447C22.0711 5 19.714 5 15 5C10.286 5 7.92893 5 6.46447 6.46447C5 7.92893 5 10.286 5 15C5 19.714 5 22.0711 6.46447 23.5355Z" fill="white"/>
<path fill-rule="evenodd" clip-rule="evenodd" d="M15 10.25C15.4142 10.25 15.75 10.5858 15.75 11V14.6893L18.0303 16.9697C18.3232 17.2626 18.3232 17.7374 18.0303 18.0303C17.7374 18.3232 17.2626 18.3232 16.9697 18.0303L14.4697 15.5303C14.329 15.3897 14.25 15.1989 14.25 15V11C14.25 10.5858 14.5858 10.25 15 10.25Z" fill="white"/>
</svg>
