<svg width="30" height="30" viewBox="0 0 30 30" fill="none" xmlns="http://www.w3.org/2000/svg">
<path opacity="0.5" d="M21.7491 12V12.7041C21.7491 13.5491 21.9903 14.3752 22.4422 15.0782L23.5496 16.8012C24.5612 18.3749 23.789 20.5139 22.0296 21.0116C17.4273 22.3134 12.5727 22.3134 7.97036 21.0116C6.21105 20.5139 5.43882 18.3749 6.45036 16.8012L7.5578 15.0782C8.00972 14.3752 8.25087 13.5491 8.25087 12.7041V12C8.25087 8.13401 11.2726 5 15 5C18.7274 5 21.7491 8.13401 21.7491 12Z" fill="#363636"/>
<path d="M10.2432 21.5453C10.8941 23.5504 12.7777 25 14.9998 25C17.222 25 19.1055 23.5504 19.7565 21.5453C16.611 22.1356 13.3886 22.1356 10.2432 21.5453Z" fill="#363636"/>
</svg>
